<?xml version="1.0" encoding="UTF-8" standalone="no"?>
<!-- Created with Inkscape (http://www.inkscape.org/) -->

<svg
   xmlns:dc="http://purl.org/dc/elements/1.1/"
   xmlns:cc="http://creativecommons.org/ns#"
   xmlns:rdf="http://www.w3.org/1999/02/22-rdf-syntax-ns#"
   xmlns:svg="http://www.w3.org/2000/svg"
   xmlns="http://www.w3.org/2000/svg"
   xmlns:sodipodi="http://sodipodi.sourceforge.net/DTD/sodipodi-0.dtd"
   xmlns:inkscape="http://www.inkscape.org/namespaces/inkscape"
   id="svg2"
   version="1.1"
   inkscape:version="0.48.3.1 r9886"
   width="110"
   height="110"
   sodipodi:docname="taskui.svg">
  <metadata
     id="metadata8">
    <rdf:RDF>
      <cc:Work
         rdf:about="">
        <dc:format>image/svg+xml</dc:format>
        <dc:type
           rdf:resource="http://purl.org/dc/dcmitype/StillImage" />
        <dc:title />
      </cc:Work>
    </rdf:RDF>
  </metadata>
  <defs
     id="defs6" />
  <sodipodi:namedview
     pagecolor="#000000"
     bordercolor="#666666"
     borderopacity="1"
     objecttolerance="10"
     gridtolerance="10"
     guidetolerance="10"
     inkscape:pageopacity="1"
     inkscape:pageshadow="2"
     inkscape:window-width="1317"
     inkscape:window-height="744"
     id="namedview4"
     showgrid="false"
     inkscape:zoom="3.8698026"
     inkscape:cx="20.411103"
     inkscape:cy="60.222394"
     inkscape:window-x="49"
     inkscape:window-y="24"
     inkscape:window-maximized="1"
     inkscape:current-layer="svg2"
     showguides="false"
     inkscape:guide-bbox="true">
    <sodipodi:guide
       orientation="1,0"
       position="0,54.051722"
       id="guide3766" />
    <sodipodi:guide
       orientation="1,0"
       position="110.08095,107.44428"
       id="guide3768" />
    <sodipodi:guide
       orientation="0,1"
       position="86.680505,110.08095"
       id="guide3770" />
    <sodipodi:guide
       orientation="0,1"
       position="123.59388,0"
       id="guide3772" />
  </sodipodi:namedview>
  <path
     sodipodi:type="arc"
     style="fill:#393939;fill-opacity:1;stroke:none"
     id="path3774"
     sodipodi:cx="55.040474"
     sodipodi:cy="55.948277"
     sodipodi:rx="55.040474"
     sodipodi:ry="55.040474"
     d="m 110.08095,55.948277 a 55.040474,55.040474 0 1 1 -110.08095,0 55.040474,55.040474 0 1 1 110.08095,0 z"
     transform="translate(0,-0.98874953)" />
  <path
     sodipodi:type="arc"
     style="fill:#ffffff;fill-opacity:1;fill-rule:evenodd;stroke:none"
     id="path2996"
     sodipodi:cx="55.040474"
     sodipodi:cy="55.948277"
     sodipodi:rx="53.722137"
     sodipodi:ry="53.722137"
     d="m 108.76261,55.948277 a 53.722137,53.722137 0 1 1 -107.4442735,0 53.722137,53.722137 0 1 1 107.4442735,0 z"
     transform="matrix(0.96596213,0,0,0.96596213,2.0382501,1.0804025)" />
  <path
     inkscape:connector-curvature="0"
     id="path2989"
     d="M 47.89964,109.22261 C 31.95412,106.80544 18.46479,97.925417 9.3751,83.861913 -1.6350402,66.827073 -1.6350402,43.564316 9.3751,26.529474 20.19198,9.7936636 36.09123,0.99394077 55.51244,0.99394077 c 19.42122,0 35.32047,8.79972283 46.13734,25.53553323 11.01016,17.034842 11.01016,40.297599 0,57.332439 -9.81743,15.189484 -24.61801,24.184037 -42.13734,25.607577 -3.575,0.29049 -8.80076,0.17939 -11.6128,-0.24688 z M 67.97089,104.6645 C 90.47753,98.802267 106.51245,78.221153 106.51245,55.195693 106.51245,22.320547 74.66431,-2.5065562 43.054,5.7268825 4.76648,15.699513 -8.3660802,63.352233 19.49491,91.213223 32.0759,103.79421 51.07346,109.06572 67.97089,104.6645 z M 48.04797,103.08249 C 28.02069,100.16643 10.45886,82.301793 7.60846,61.945693 3.1959298,30.433642 30.75039,2.8791778 62.26244,7.2917085 77.8002,9.4674115 92.27072,20.136146 99.013359,34.387208 115.61125,69.468013 86.51689,108.68373 48.04797,103.08249 z m 3.43869,-28.636797 -0.0258,-14.75 -5.02379,-3.40838 c -4.63559,-3.145 -7.68507,-6.66453 -6.6614,-7.68819 0.2339,-0.2339 3.87036,0.11032 8.08102,0.76493 5.91949,0.92028 9.39199,0.92028 15.31148,0 4.21066,-0.65461 7.82125,-1.0247 8.02354,-0.82241 1.01964,1.01963 -1.33587,3.7756 -6.21297,7.26924 l -5.42318,3.88481 -0.0216,14.75 c -0.0174,11.91586 0.24476,14.75 1.36448,14.75 1.8141,0 12.44221,-7.11889 15.51427,-10.39173 l 2.40032,-2.55719 -2.28646,-9.49221 c -1.72319,-7.15382 -2.08556,-10.54741 -1.47098,-13.77555 0.44851,-2.35583 0.84728,-7.692492 0.88614,-11.859255 0.0625,-6.703109 -0.25454,-8.06701 -2.75201,-11.838378 -4.00279,-6.044502 -9.7012,-8.404079 -19.14435,-7.927221 -13.06609,0.659807 -19.08622,7.120269 -18.9551,20.341532 0.0382,3.85 0.43504,8.927492 0.88191,11.283322 0.61148,3.22363 0.24682,6.63172 -1.47397,13.77555 l -2.28646,9.49221 2.40032,2.55719 c 3.07206,3.27284 13.70018,10.39173 15.51428,10.39173 1.11991,0 1.38109,-2.83211 1.36026,-14.75 z"
     style="fill:#393939" />
</svg>
